<svg width="23" height="22" viewBox="0 0 23 22" fill="none" xmlns="http://www.w3.org/2000/svg">
<g clip-path="url(#clip0_736_2052)">
<circle cx="11.5" cy="11" r="11" fill="#87DA21" fill-opacity="0.55"/>
<path d="M13.7527 7.60744C13.6485 7.60744 13.5616 7.56402 13.4921 7.47718C13.44 7.37297 13.4574 7.26876 13.5443 7.16455L15.394 5.15848C15.4808 5.07164 15.5243 4.95874 15.5243 4.81979C15.5243 4.66348 15.4461 4.52453 15.2898 4.40295C15.1508 4.28137 14.9858 4.22058 14.7948 4.22058C14.6211 4.22058 14.4387 4.29874 14.2477 4.45505C14.0393 4.62874 13.7179 4.95874 13.2837 5.44506C12.8495 5.93138 12.3545 6.51323 11.7987 7.1906C11.7987 7.20797 11.7727 7.23402 11.7206 7.26876C11.6685 7.28613 11.6337 7.29481 11.6163 7.29481H9.55817C9.38449 7.29481 9.29764 7.20797 9.29764 7.03428C9.29764 6.8606 9.38449 6.77375 9.55817 6.77375H11.4861C12.0071 6.11375 12.4848 5.54927 12.919 5.08032C13.3532 4.594 13.6745 4.25532 13.8829 4.06426C14.1435 3.8211 14.4474 3.69952 14.7948 3.69952C15.1422 3.69952 15.4374 3.81242 15.6806 4.03821C15.9237 4.24663 16.0453 4.49848 16.0453 4.79374C16.0453 5.05427 15.9585 5.28006 15.7848 5.47111C15.7501 5.52322 15.6285 5.66217 15.4201 5.88796C15.229 6.11375 14.9945 6.37428 14.7166 6.66954C14.4387 6.96481 14.1782 7.25139 13.935 7.52929C13.8829 7.58139 13.8221 7.60744 13.7527 7.60744ZM7.47395 12.8441C7.31763 12.8441 7.23947 12.7659 7.23947 12.6096C7.23947 12.5575 7.28289 12.4706 7.36974 12.3491C7.82132 11.7933 8.34237 11.1333 8.9329 10.369C9.52344 9.60483 10.114 8.80587 10.7045 7.97218C10.7566 7.90271 10.8174 7.86797 10.8869 7.86797C10.9911 7.86797 11.0692 7.92008 11.1213 8.02429C11.1908 8.11113 11.1908 8.19798 11.1213 8.28482C10.5308 9.11851 9.94028 9.92614 9.34975 10.7077C8.75922 11.4719 8.21211 12.1493 7.70842 12.7398C7.63895 12.8093 7.56079 12.8441 7.47395 12.8441ZM10.3919 16.0746C9.74923 16.0746 9.27159 15.8228 8.95896 15.3191C8.88948 15.1801 8.82869 15.0412 8.77659 14.9022C8.72448 14.7459 8.69843 14.5809 8.69843 14.4072C8.69843 14.112 8.7679 13.7733 8.90685 13.3912C9.06317 12.9917 9.30633 12.5662 9.63633 12.1146C9.82738 11.8367 10.1053 11.4806 10.47 11.0464C10.8348 10.5948 11.2169 10.1259 11.6163 9.63956C12.0332 9.13588 12.3892 8.67561 12.6845 8.25876C12.6845 8.2414 12.7106 8.22403 12.7627 8.20666C12.8321 8.17192 12.8756 8.15455 12.8929 8.15455H15.1335C15.3072 8.15455 15.394 8.2414 15.394 8.41508C15.394 8.58877 15.3072 8.67561 15.1335 8.67561H13.0232C12.7279 9.09245 12.3806 9.54404 11.9811 10.0304C11.599 10.4993 11.2256 10.9509 10.8608 11.3851C10.5134 11.8193 10.2442 12.1667 10.0532 12.4272C9.75791 12.8614 9.54949 13.2435 9.42791 13.5735C9.30633 13.8862 9.24554 14.1641 9.24554 14.4072C9.24554 14.6678 9.29764 14.8762 9.40186 15.0325C9.61028 15.3799 9.94028 15.5536 10.3919 15.5536C10.8434 15.5536 11.3037 15.4059 11.7727 15.1107C12.259 14.798 12.7366 14.4072 13.2056 13.9383C13.6745 13.452 14.1 12.9483 14.4822 12.4272C14.5343 12.3577 14.6037 12.323 14.6906 12.323C14.7774 12.323 14.8556 12.3664 14.9251 12.4533C14.9945 12.5401 14.9858 12.6356 14.899 12.7398C14.2564 13.643 13.5269 14.4246 12.7106 15.0846C11.8942 15.7446 11.1213 16.0746 10.3919 16.0746ZM9.55817 17.6378C8.8808 17.6378 8.33369 17.4467 7.91685 17.0646C7.51737 16.6651 7.335 16.1007 7.36974 15.3712C7.36974 15.2149 7.45658 15.1367 7.63026 15.1367C7.69974 15.1367 7.76053 15.1628 7.81263 15.2149C7.88211 15.2496 7.90816 15.3104 7.89079 15.3972C7.87342 15.8836 8.01237 16.3004 8.30764 16.6478C8.62027 16.9778 9.07185 17.1428 9.66238 17.1428C10.0792 17.1428 10.5569 17.0386 11.0953 16.8301C11.6511 16.6043 12.2503 16.2483 12.8929 15.762C12.9277 15.7272 12.9798 15.7099 13.0492 15.7099C13.2229 15.7099 13.3098 15.7967 13.3098 15.9704C13.3098 16.0572 13.275 16.1267 13.2056 16.1788C12.5629 16.6651 11.9203 17.0299 11.2777 17.273C10.6524 17.5162 10.0792 17.6378 9.55817 17.6378Z" fill="white"/>
</g>
<defs>
<clipPath id="clip0_736_2052">
<rect width="22" height="22" fill="white" transform="translate(0.5)"/>
</clipPath>
</defs>
</svg>
