<svg width="86" height="20" viewBox="0 0 86 20" fill="none" xmlns="http://www.w3.org/2000/svg">
<path d="M8.87305 5.46191C8.98242 5.37533 9.03255 5.29329 9.02344 5.21582C9.01432 5.13835 8.98242 5.06999 8.92773 5.01074C8.86393 4.94238 8.77279 4.87858 8.6543 4.81934C8.43555 4.71452 8.15299 4.63932 7.80664 4.59375C7.46029 4.54818 7.09342 4.52539 6.70605 4.52539C6.15462 4.52539 5.63281 4.57552 5.14062 4.67578C4.65299 4.77604 4.21777 4.96061 3.83496 5.22949C3.45671 5.49382 3.14453 5.86068 2.89844 6.33008C2.65234 6.79492 2.4974 7.39193 2.43359 8.12109C2.71615 8.13021 2.99414 8.13477 3.26758 8.13477C3.54557 8.13477 3.81901 8.13477 4.08789 8.13477C4.41146 8.13477 4.77148 8.12793 5.16797 8.11426C5.56901 8.09603 5.97689 8.0778 6.3916 8.05957C6.81087 8.03678 7.22103 8.014 7.62207 7.99121C8.02311 7.96842 8.38542 7.9502 8.70898 7.93652C9.03255 7.91829 9.30143 7.90918 9.51562 7.90918C9.73438 7.90918 9.86654 7.91829 9.91211 7.93652C9.9668 7.96387 9.97591 8.00944 9.93945 8.07324C9.90755 8.13249 9.84147 8.20312 9.74121 8.28516C9.64551 8.36263 9.52474 8.44694 9.37891 8.53809C9.23763 8.62923 9.08724 8.7181 8.92773 8.80469C8.76823 8.88672 8.60645 8.96419 8.44238 9.03711C8.28288 9.10547 8.13704 9.16016 8.00488 9.20117C8.1097 9.02344 8.12793 8.89811 8.05957 8.8252C7.99577 8.74772 7.81576 8.70898 7.51953 8.70898C7.38737 8.70898 7.2666 8.71126 7.15723 8.71582C7.04785 8.72038 6.92253 8.72949 6.78125 8.74316C6.63997 8.75228 6.46452 8.76595 6.25488 8.78418C6.04525 8.79785 5.77409 8.81836 5.44141 8.8457C5.10872 8.86849 4.69629 8.89811 4.2041 8.93457C3.71191 8.96647 3.11263 9.00293 2.40625 9.04395C2.42904 9.78223 2.55664 10.4089 2.78906 10.9238C3.02604 11.4388 3.34733 11.8626 3.75293 12.1953C4.15853 12.528 4.6416 12.7832 5.20215 12.9609C5.76725 13.1341 6.38932 13.248 7.06836 13.3027C7.46029 13.321 7.84766 13.3027 8.23047 13.248C8.39453 13.2253 8.56543 13.1934 8.74316 13.1523C8.92546 13.1113 9.10547 13.0589 9.2832 12.9951C9.46549 12.9268 9.64323 12.8447 9.81641 12.749C9.98958 12.6533 10.1514 12.5394 10.3018 12.4072C9.96452 12.6943 9.61133 12.9564 9.24219 13.1934C8.8776 13.4258 8.49935 13.6286 8.10742 13.8018C7.72005 13.9704 7.32585 14.1003 6.9248 14.1914C6.52376 14.2871 6.125 14.335 5.72852 14.335C5.38216 14.335 5.0153 14.3053 4.62793 14.2461C4.24512 14.1914 3.86458 14.098 3.48633 13.9658C3.11263 13.8291 2.75488 13.6514 2.41309 13.4326C2.07585 13.2093 1.7819 12.9336 1.53125 12.6055C1.28516 12.2728 1.09375 11.8831 0.957031 11.4365C0.820312 10.9854 0.767904 10.4681 0.799805 9.88477C0.831706 9.20573 0.95931 8.5791 1.18262 8.00488C1.41048 7.43066 1.70671 6.91341 2.07129 6.45312C2.43587 5.98828 2.85742 5.5804 3.33594 5.22949C3.81445 4.87402 4.32487 4.5778 4.86719 4.34082C5.41406 4.10384 5.98145 3.92611 6.56934 3.80762C7.15723 3.68457 7.74056 3.62305 8.31934 3.62305C8.57454 3.62305 8.80924 3.63444 9.02344 3.65723C9.23763 3.68001 9.42904 3.70736 9.59766 3.73926C9.77083 3.77116 9.91895 3.80762 10.042 3.84863C10.165 3.88509 10.2607 3.91927 10.3291 3.95117C10.5342 4.04232 10.6367 4.14941 10.6367 4.27246C10.6367 4.34538 10.598 4.42285 10.5205 4.50488C10.4476 4.58691 10.3519 4.66895 10.2334 4.75098C10.1195 4.83301 9.99186 4.91276 9.85059 4.99023C9.71387 5.06315 9.57943 5.13151 9.44727 5.19531C9.31966 5.25911 9.20345 5.3138 9.09863 5.35938C8.99382 5.40495 8.91862 5.43913 8.87305 5.46191ZM21.376 12.9473C21.1846 13.1387 20.9772 13.3141 20.7539 13.4736C20.5352 13.6286 20.3141 13.763 20.0908 13.877C19.8675 13.9909 19.651 14.082 19.4414 14.1504C19.2318 14.2188 19.0404 14.2575 18.8672 14.2666C18.7715 14.2757 18.6484 14.2734 18.498 14.2598C18.3477 14.2507 18.2018 14.2119 18.0605 14.1436C17.9238 14.0752 17.8053 13.9681 17.7051 13.8223C17.6048 13.6764 17.5547 13.4691 17.5547 13.2002V12.3867C17.304 12.6328 17.0397 12.8698 16.7617 13.0977C16.4837 13.321 16.1966 13.5215 15.9004 13.6992C15.6087 13.8724 15.3125 14.0091 15.0117 14.1094C14.7109 14.2142 14.4147 14.2666 14.123 14.2666C13.7493 14.2666 13.4212 14.1823 13.1387 14.0137C12.8561 13.8496 12.6191 13.6354 12.4277 13.3711C12.2363 13.1068 12.0928 12.8105 11.9971 12.4824C11.9014 12.1543 11.8535 11.8285 11.8535 11.5049C11.8535 11.2633 11.8717 11.0264 11.9082 10.7939C11.9447 10.557 11.9902 10.3337 12.0449 10.124C12.1042 9.91439 12.1702 9.72526 12.2432 9.55664C12.3206 9.38802 12.4004 9.24902 12.4824 9.13965C12.6328 8.93457 12.8242 8.73633 13.0566 8.54492C13.2891 8.35352 13.542 8.1735 13.8154 8.00488C14.0934 7.83626 14.3874 7.68359 14.6973 7.54688C15.0072 7.41016 15.3148 7.29167 15.6201 7.19141C15.93 7.09115 16.2308 7.01367 16.5225 6.95898C16.8141 6.9043 17.083 6.87695 17.3291 6.87695C17.5843 6.87695 17.8851 6.89062 18.2314 6.91797C18.5778 6.94076 18.972 6.99089 19.4141 7.06836C19.3958 7.59245 19.3799 8.05501 19.3662 8.45605C19.3525 8.8571 19.3411 9.21712 19.332 9.53613C19.3229 9.85059 19.3161 10.1377 19.3115 10.3975C19.307 10.6572 19.3047 10.9102 19.3047 11.1562C19.3047 11.4069 19.3001 11.653 19.291 11.8945C19.2819 12.1361 19.3001 12.3525 19.3457 12.5439C19.3913 12.7354 19.4801 12.8903 19.6123 13.0088C19.749 13.1273 19.9587 13.1865 20.2412 13.1865C20.4098 13.1865 20.5898 13.166 20.7812 13.125C20.9727 13.0794 21.1709 13.0202 21.376 12.9473ZM17.5684 8.05273C17.2949 7.97982 17.0033 7.92969 16.6934 7.90234C16.3835 7.87044 16.0872 7.85449 15.8047 7.85449C15.6497 7.85449 15.5016 7.85905 15.3604 7.86816C15.2236 7.87728 15.0983 7.88867 14.9844 7.90234C14.8704 7.91602 14.7702 7.93424 14.6836 7.95703C14.597 7.97526 14.5309 7.99805 14.4854 8.02539C14.4033 8.06641 14.3076 8.16667 14.1982 8.32617C14.0889 8.48112 13.984 8.6748 13.8838 8.90723C13.7835 9.13965 13.6969 9.40169 13.624 9.69336C13.5557 9.98503 13.5215 10.2858 13.5215 10.5957C13.5215 10.8919 13.5648 11.1904 13.6514 11.4912C13.738 11.7874 13.8633 12.054 14.0273 12.291C14.196 12.528 14.401 12.7217 14.6426 12.8721C14.8887 13.0179 15.1689 13.0908 15.4834 13.0908C15.7796 13.0908 16.0417 13.043 16.2695 12.9473C16.4974 12.8516 16.6956 12.7217 16.8643 12.5576C17.0329 12.389 17.1719 12.193 17.2812 11.9697C17.3952 11.7464 17.4863 11.5049 17.5547 11.2451C17.5547 11.0537 17.5547 10.8509 17.5547 10.6367C17.5547 10.418 17.5547 10.1787 17.5547 9.91895C17.5547 9.65918 17.5547 9.37663 17.5547 9.07129C17.5592 8.76139 17.5638 8.42188 17.5684 8.05273ZM29.3125 7.12305C29.2988 7.70638 29.2874 8.23047 29.2783 8.69531C29.2692 9.1556 29.2601 9.56803 29.251 9.93262C29.2464 10.2972 29.2419 10.6162 29.2373 10.8896C29.2327 11.1585 29.2305 11.391 29.2305 11.5869C29.2259 12.0426 29.2259 12.3662 29.2305 12.5576C29.2214 13.0635 29.2145 13.5078 29.21 13.8906C29.2054 14.2734 29.1803 14.6152 29.1348 14.916C29.0938 15.2168 29.0208 15.4811 28.916 15.709C28.8158 15.9414 28.6631 16.1556 28.458 16.3516C28.1025 16.6934 27.7311 17.0329 27.3438 17.3701C26.9609 17.7119 26.5622 18.0173 26.1475 18.2861C25.7373 18.5596 25.3089 18.7783 24.8623 18.9424C24.4157 19.111 23.9531 19.1953 23.4746 19.1953C23.1875 19.1953 22.8844 19.152 22.5654 19.0654C22.2464 18.9834 21.9502 18.8604 21.6768 18.6963C21.4079 18.5322 21.1868 18.3271 21.0137 18.0811C20.8359 17.835 20.7471 17.5479 20.7471 17.2197C20.7471 16.96 20.8245 16.707 20.9795 16.4609C21.1299 16.2194 21.3555 15.9961 21.6562 15.791C21.8294 15.668 22.0254 15.529 22.2441 15.374C22.4355 15.2419 22.6634 15.0846 22.9277 14.9023C23.1966 14.7201 23.4997 14.5173 23.8369 14.2939C23.4906 14.2666 23.1875 14.1663 22.9277 13.9932C22.668 13.82 22.4492 13.6035 22.2715 13.3438C22.0983 13.084 21.9684 12.7992 21.8818 12.4893C21.7952 12.1748 21.752 11.8626 21.752 11.5527C21.752 11.3112 21.7702 11.0719 21.8066 10.835C21.8431 10.598 21.8887 10.377 21.9434 10.1719C22.0026 9.96224 22.0687 9.77311 22.1416 9.60449C22.2191 9.43132 22.2988 9.29004 22.3809 9.18066C22.5404 8.96191 22.7363 8.75456 22.9688 8.55859C23.2057 8.35807 23.4632 8.17578 23.7412 8.01172C24.0192 7.8431 24.3109 7.69271 24.6162 7.56055C24.9215 7.42839 25.2246 7.31673 25.5254 7.22559C25.8262 7.12988 26.1178 7.05697 26.4004 7.00684C26.6829 6.95671 26.9404 6.93164 27.1729 6.93164C27.4281 6.93164 27.7334 6.94531 28.0889 6.97266C28.4489 6.99544 28.8568 7.04557 29.3125 7.12305ZM27.4668 8.08008C27.1934 8.01628 26.9017 7.9707 26.5918 7.94336C26.2819 7.91146 25.9857 7.89551 25.7031 7.89551C25.3203 7.89551 24.9854 7.93424 24.6982 8.01172C24.4157 8.08919 24.1787 8.23047 23.9873 8.43555C23.8005 8.64062 23.6592 8.9209 23.5635 9.27637C23.4678 9.63184 23.4199 10.0853 23.4199 10.6367C23.4199 10.9375 23.4632 11.236 23.5498 11.5322C23.6364 11.8285 23.7617 12.0951 23.9258 12.332C24.0944 12.569 24.2995 12.7627 24.541 12.9131C24.7871 13.0589 25.0674 13.1318 25.3818 13.1318C25.6872 13.1318 25.9538 13.084 26.1816 12.9883C26.4141 12.8926 26.6123 12.7627 26.7764 12.5986C26.9404 12.4346 27.0749 12.2432 27.1797 12.0244C27.2891 11.8057 27.3757 11.5732 27.4395 11.3271C27.4395 10.9398 27.4417 10.484 27.4463 9.95996C27.4508 9.43132 27.4577 8.80469 27.4668 8.08008ZM22.6611 15.5928C22.4196 15.8298 22.2988 16.0781 22.2988 16.3379C22.2988 16.5384 22.3512 16.7161 22.4561 16.8711C22.5654 17.026 22.7044 17.1628 22.873 17.2812C23.0462 17.3997 23.2399 17.4977 23.4541 17.5752C23.6683 17.6572 23.8825 17.7233 24.0967 17.7734C24.3154 17.8236 24.5228 17.86 24.7188 17.8828C24.9147 17.9056 25.0788 17.917 25.2109 17.917C25.5117 17.917 25.7897 17.8896 26.0449 17.835C26.3001 17.7803 26.4984 17.7005 26.6396 17.5957C26.7946 17.4772 26.9222 17.2585 27.0225 16.9395C27.1227 16.625 27.2025 16.2376 27.2617 15.7773C27.321 15.3216 27.362 14.8089 27.3848 14.2393C27.4121 13.6696 27.4303 13.0726 27.4395 12.4482C27.207 12.6761 26.9632 12.8949 26.708 13.1045C26.4574 13.3141 26.1976 13.5033 25.9287 13.6719C25.6598 13.8359 25.3864 13.9727 25.1084 14.082C24.8304 14.1914 24.5524 14.262 24.2744 14.2939C24.001 14.499 23.7617 14.679 23.5566 14.834C23.3561 14.9935 23.1898 15.1302 23.0576 15.2441C22.9027 15.3763 22.7705 15.4925 22.6611 15.5928ZM36.2988 12.7422C35.8431 13.0566 35.4603 13.3164 35.1504 13.5215C34.8405 13.722 34.5693 13.8815 34.3369 14C34.109 14.123 33.9017 14.2074 33.7148 14.2529C33.5326 14.2985 33.3389 14.3213 33.1338 14.3213C32.9561 14.3213 32.7829 14.278 32.6143 14.1914C32.4502 14.1094 32.3021 13.9567 32.1699 13.7334C32.0423 13.5055 31.9398 13.1956 31.8623 12.8037C31.7848 12.4072 31.7461 11.8968 31.7461 11.2725C31.7461 10.6572 31.7529 10.0124 31.7666 9.33789C31.7803 8.66341 31.7939 7.98665 31.8076 7.30762C31.8258 6.62858 31.8418 5.96322 31.8555 5.31152C31.8691 4.65983 31.876 4.05143 31.876 3.48633C31.876 2.93034 31.7917 2.4974 31.623 2.1875C31.4544 1.8776 31.1969 1.72266 30.8506 1.72266C30.7458 1.72266 30.6296 1.73861 30.502 1.77051C30.3743 1.79785 30.2399 1.84798 30.0986 1.9209C30.2764 1.79329 30.4632 1.66341 30.6592 1.53125C30.8551 1.39453 31.0534 1.27148 31.2539 1.16211C31.459 1.05273 31.6641 0.963867 31.8691 0.895508C32.0788 0.822591 32.2861 0.786133 32.4912 0.786133C32.751 0.786133 32.9538 0.852214 33.0996 0.984375C33.25 1.11198 33.3594 1.27148 33.4277 1.46289C33.5007 1.6543 33.5439 1.86393 33.5576 2.0918C33.5758 2.3151 33.585 2.52246 33.585 2.71387C33.5804 3.00553 33.5736 3.35645 33.5645 3.7666C33.5599 4.17676 33.5531 4.61882 33.5439 5.09277C33.5348 5.56217 33.5257 6.0498 33.5166 6.55566C33.5075 7.06152 33.4984 7.55827 33.4893 8.0459C33.4801 8.52897 33.471 8.98926 33.4619 9.42676C33.4574 9.86426 33.4505 10.2493 33.4414 10.582C33.4323 11.0286 33.4642 11.416 33.5371 11.7441C33.61 12.0677 33.7148 12.3343 33.8516 12.5439C33.9883 12.7536 34.1523 12.9085 34.3438 13.0088C34.5352 13.109 34.7471 13.1592 34.9795 13.1592C35.3988 13.1592 35.8385 13.0202 36.2988 12.7422ZM45.0693 7.47852C44.5452 7.73372 44.0576 7.96159 43.6064 8.16211C43.1598 8.35807 42.7656 8.52441 42.4238 8.66113C42.0273 8.82064 41.6628 8.96191 41.3301 9.08496C41.125 9.17155 40.8971 9.26042 40.6465 9.35156C40.4004 9.43815 40.1429 9.52474 39.874 9.61133C39.6051 9.69336 39.3294 9.77767 39.0469 9.86426C38.7689 9.94629 38.4932 10.0283 38.2197 10.1104V10.2471C38.2197 10.7165 38.2926 11.138 38.4385 11.5117C38.5889 11.8854 38.7962 12.2044 39.0605 12.4688C39.3249 12.7285 39.6416 12.929 40.0107 13.0703C40.3799 13.207 40.7878 13.2754 41.2344 13.2754C41.4668 13.2754 41.6969 13.2572 41.9248 13.2207C42.1572 13.1842 42.376 13.1364 42.5811 13.0771C42.7907 13.0133 42.9867 12.9382 43.1689 12.8516C43.3512 12.765 43.513 12.6715 43.6543 12.5713C43.3079 12.8812 42.9502 13.141 42.5811 13.3506C42.2165 13.5602 41.8496 13.7311 41.4805 13.8633C41.1159 13.9909 40.7536 14.0843 40.3936 14.1436C40.0381 14.2028 39.6963 14.2347 39.3682 14.2393C39.0355 14.2484 38.7074 14.196 38.3838 14.082C38.0648 13.9727 37.7731 13.804 37.5088 13.5762C37.2445 13.3483 37.0212 13.0658 36.8389 12.7285C36.6566 12.3867 36.5381 11.9902 36.4834 11.5391C36.4606 11.3796 36.4492 11.2269 36.4492 11.0811C36.4538 10.9307 36.4697 10.7826 36.4971 10.6367C36.3376 10.696 36.1917 10.7507 36.0596 10.8008C35.932 10.8509 35.8271 10.901 35.7451 10.9512C35.8773 10.86 36.0094 10.7757 36.1416 10.6982C36.2738 10.6162 36.4036 10.541 36.5312 10.4727C36.6087 10.1172 36.7409 9.77767 36.9277 9.4541C37.1191 9.13053 37.347 8.82975 37.6113 8.55176C37.8802 8.27376 38.1787 8.02311 38.5068 7.7998C38.835 7.57194 39.1745 7.37826 39.5254 7.21875C39.8809 7.05924 40.2409 6.9362 40.6055 6.84961C40.9701 6.76302 41.3232 6.71973 41.665 6.71973C41.8929 6.71973 42.0843 6.75391 42.2393 6.82227C42.3988 6.89062 42.5059 7.01139 42.5605 7.18457C42.5879 7.36686 42.5218 7.56283 42.3623 7.77246C42.2939 7.86361 42.2005 7.96159 42.082 8.06641C41.9681 8.16667 41.8177 8.27376 41.6309 8.3877C41.4486 8.50163 41.2275 8.62012 40.9678 8.74316C40.7126 8.86621 40.4095 8.98926 40.0586 9.1123L45.0693 7.47852ZM39.6484 9.13965C39.8444 9.05306 40.0199 8.95964 40.1748 8.85938C40.3343 8.75911 40.4574 8.6543 40.5439 8.54492C40.6351 8.43555 40.6829 8.32161 40.6875 8.20312C40.6921 8.08464 40.6442 7.95931 40.5439 7.82715C40.4756 7.72689 40.3799 7.65853 40.2568 7.62207C40.1383 7.58105 40.0153 7.56055 39.8877 7.56055C39.7692 7.56055 39.6553 7.57422 39.5459 7.60156C39.4365 7.62435 39.3408 7.65625 39.2588 7.69727C39.2041 7.72917 39.1289 7.7998 39.0332 7.90918C38.9375 8.014 38.8395 8.15299 38.7393 8.32617C38.639 8.49479 38.5433 8.69303 38.4521 8.9209C38.3656 9.14421 38.3018 9.3903 38.2607 9.65918C38.5479 9.55436 38.8076 9.46094 39.04 9.37891C39.2725 9.29688 39.4753 9.21712 39.6484 9.13965ZM56.8545 12.8516C56.3486 13.1706 55.8542 13.4281 55.3711 13.624C54.888 13.8154 54.4027 13.9613 53.915 14.0615C53.4274 14.1663 52.9307 14.2301 52.4248 14.2529C51.9189 14.2757 51.3926 14.2757 50.8457 14.2529C50.668 14.2484 50.5107 14.2415 50.374 14.2324C50.2373 14.2233 50.1234 14.1914 50.0322 14.1367C49.9456 14.0866 49.8796 14.0023 49.834 13.8838C49.7884 13.7653 49.7656 13.5944 49.7656 13.3711C49.7656 13.2572 49.7656 13.0589 49.7656 12.7764C49.7702 12.4938 49.7725 12.1589 49.7725 11.7715C49.777 11.3796 49.7816 10.9535 49.7861 10.4932C49.7907 10.0283 49.7952 9.55892 49.7998 9.08496C49.8044 8.611 49.8089 8.14844 49.8135 7.69727C49.818 7.24154 49.8226 6.8291 49.8271 6.45996C49.8317 6.09082 49.8363 5.78092 49.8408 5.53027C49.8454 5.27507 49.8499 5.111 49.8545 5.03809C49.859 4.95605 49.8408 4.8877 49.7998 4.83301C49.7633 4.77832 49.7109 4.73503 49.6426 4.70312C49.5788 4.66667 49.5013 4.6416 49.4102 4.62793C49.319 4.61426 49.2233 4.60742 49.123 4.60742C48.9635 4.60742 48.7904 4.62337 48.6035 4.65527C48.4212 4.68262 48.248 4.7168 48.084 4.75781C48.3164 4.60742 48.5443 4.46842 48.7676 4.34082C48.9954 4.20866 49.2233 4.09701 49.4512 4.00586C49.679 3.91016 49.9115 3.83496 50.1484 3.78027C50.3854 3.72559 50.6315 3.69824 50.8867 3.69824C50.987 3.69824 51.0827 3.70508 51.1738 3.71875C51.265 3.72786 51.3447 3.74609 51.4131 3.77344C51.4814 3.79622 51.5361 3.8304 51.5771 3.87598C51.6182 3.91699 51.6364 3.9694 51.6318 4.0332C51.6318 4.20638 51.6273 4.63932 51.6182 5.33203C51.6136 5.62826 51.609 5.99512 51.6045 6.43262C51.5999 6.87012 51.5931 7.39876 51.584 8.01855C51.5794 8.63835 51.5726 9.36068 51.5635 10.1855C51.5589 11.0059 51.5521 11.9469 51.543 13.0088C51.9714 13.0589 52.3747 13.0954 52.7529 13.1182C53.1312 13.1364 53.4889 13.1455 53.8262 13.1455C54.3001 13.1455 54.724 13.1318 55.0977 13.1045C55.4714 13.0726 55.7881 13.0384 56.0479 13.002C56.3532 12.9564 56.6221 12.9062 56.8545 12.8516ZM67.0127 12.9473C66.8213 13.1387 66.6139 13.3141 66.3906 13.4736C66.1719 13.6286 65.9508 13.763 65.7275 13.877C65.5042 13.9909 65.2878 14.082 65.0781 14.1504C64.8685 14.2188 64.6771 14.2575 64.5039 14.2666C64.4082 14.2757 64.2852 14.2734 64.1348 14.2598C63.9844 14.2507 63.8385 14.2119 63.6973 14.1436C63.5605 14.0752 63.4421 13.9681 63.3418 13.8223C63.2415 13.6764 63.1914 13.4691 63.1914 13.2002V12.3867C62.9408 12.6328 62.6764 12.8698 62.3984 13.0977C62.1204 13.321 61.8333 13.5215 61.5371 13.6992C61.2454 13.8724 60.9492 14.0091 60.6484 14.1094C60.3477 14.2142 60.0514 14.2666 59.7598 14.2666C59.3861 14.2666 59.0579 14.1823 58.7754 14.0137C58.4928 13.8496 58.2559 13.6354 58.0645 13.3711C57.873 13.1068 57.7295 12.8105 57.6338 12.4824C57.5381 12.1543 57.4902 11.8285 57.4902 11.5049C57.4902 11.2633 57.5085 11.0264 57.5449 10.7939C57.5814 10.557 57.627 10.3337 57.6816 10.124C57.7409 9.91439 57.807 9.72526 57.8799 9.55664C57.9574 9.38802 58.0371 9.24902 58.1191 9.13965C58.2695 8.93457 58.4609 8.73633 58.6934 8.54492C58.9258 8.35352 59.1787 8.1735 59.4521 8.00488C59.7301 7.83626 60.0241 7.68359 60.334 7.54688C60.6439 7.41016 60.9515 7.29167 61.2568 7.19141C61.5667 7.09115 61.8675 7.01367 62.1592 6.95898C62.4508 6.9043 62.7197 6.87695 62.9658 6.87695C63.221 6.87695 63.5218 6.89062 63.8682 6.91797C64.2145 6.94076 64.6087 6.99089 65.0508 7.06836C65.0326 7.59245 65.0166 8.05501 65.0029 8.45605C64.9893 8.8571 64.9779 9.21712 64.9688 9.53613C64.9596 9.85059 64.9528 10.1377 64.9482 10.3975C64.9437 10.6572 64.9414 10.9102 64.9414 11.1562C64.9414 11.4069 64.9368 11.653 64.9277 11.8945C64.9186 12.1361 64.9368 12.3525 64.9824 12.5439C65.028 12.7354 65.1169 12.8903 65.249 13.0088C65.3857 13.1273 65.5954 13.1865 65.8779 13.1865C66.0465 13.1865 66.2266 13.166 66.418 13.125C66.6094 13.0794 66.8076 13.0202 67.0127 12.9473ZM63.2051 8.05273C62.9316 7.97982 62.64 7.92969 62.3301 7.90234C62.0202 7.87044 61.724 7.85449 61.4414 7.85449C61.2865 7.85449 61.1383 7.85905 60.9971 7.86816C60.8604 7.87728 60.735 7.88867 60.6211 7.90234C60.5072 7.91602 60.4069 7.93424 60.3203 7.95703C60.2337 7.97526 60.1676 7.99805 60.1221 8.02539C60.04 8.06641 59.9443 8.16667 59.835 8.32617C59.7256 8.48112 59.6208 8.6748 59.5205 8.90723C59.4202 9.13965 59.3337 9.40169 59.2607 9.69336C59.1924 9.98503 59.1582 10.2858 59.1582 10.5957C59.1582 10.8919 59.2015 11.1904 59.2881 11.4912C59.3747 11.7874 59.5 12.054 59.6641 12.291C59.8327 12.528 60.0378 12.7217 60.2793 12.8721C60.5254 13.0179 60.8057 13.0908 61.1201 13.0908C61.4163 13.0908 61.6784 13.043 61.9062 12.9473C62.1341 12.8516 62.3324 12.7217 62.501 12.5576C62.6696 12.389 62.8086 12.193 62.918 11.9697C63.0319 11.7464 63.123 11.5049 63.1914 11.2451C63.1914 11.0537 63.1914 10.8509 63.1914 10.6367C63.1914 10.418 63.1914 10.1787 63.1914 9.91895C63.1914 9.65918 63.1914 9.37663 63.1914 9.07129C63.196 8.76139 63.2005 8.42188 63.2051 8.05273ZM69.5352 13.2412L67.8945 14.417C67.9128 13.2321 67.931 12.168 67.9492 11.2246C67.9674 10.2812 67.9811 9.44271 67.9902 8.70898C68.0039 7.9707 68.0153 7.3304 68.0244 6.78809C68.0335 6.24577 68.0404 5.78092 68.0449 5.39355C68.0586 4.48665 68.0654 3.85091 68.0654 3.48633C68.0791 2.93034 67.9993 2.4974 67.8262 2.1875C67.6576 1.8776 67.3955 1.72266 67.04 1.72266C66.9261 1.72266 66.8076 1.73861 66.6846 1.77051C66.557 1.79785 66.4248 1.84798 66.2881 1.9209C66.4658 1.79329 66.6527 1.66341 66.8486 1.53125C67.0446 1.39453 67.2428 1.27148 67.4434 1.16211C67.6484 1.05273 67.8535 0.963867 68.0586 0.895508C68.2682 0.822591 68.4756 0.786133 68.6807 0.786133C68.863 0.786133 69.0179 0.820312 69.1455 0.888672C69.2731 0.957031 69.3779 1.04818 69.46 1.16211C69.5465 1.27148 69.6126 1.39909 69.6582 1.54492C69.7038 1.6862 69.7357 1.83431 69.7539 1.98926C69.7767 2.14421 69.7904 2.29915 69.7949 2.4541C69.7995 2.60905 69.8018 2.7526 69.8018 2.88477L69.6445 8.73633C69.8906 8.45833 70.1686 8.20085 70.4785 7.96387C70.793 7.72233 71.1188 7.51725 71.4561 7.34863C71.7933 7.18001 72.1305 7.05469 72.4678 6.97266C72.8096 6.89062 73.1286 6.86784 73.4248 6.9043C73.6025 6.92708 73.7689 6.97949 73.9238 7.06152C74.0788 7.139 74.2132 7.24382 74.3271 7.37598C74.4411 7.50358 74.5299 7.65397 74.5938 7.82715C74.6621 7.99577 74.6963 8.17806 74.6963 8.37402C74.6963 8.69759 74.6211 8.98698 74.4707 9.24219C74.3203 9.4974 74.1266 9.7207 73.8896 9.91211C73.6572 10.1035 73.3975 10.263 73.1104 10.3906C72.8278 10.5137 72.5544 10.6071 72.29 10.6709C72.4131 10.8031 72.5566 10.958 72.7207 11.1357C72.8893 11.3135 73.0693 11.498 73.2607 11.6895C73.4521 11.8763 73.6527 12.0632 73.8623 12.25C74.0719 12.4323 74.2816 12.5964 74.4912 12.7422C74.7054 12.888 74.915 13.0065 75.1201 13.0977C75.3252 13.1842 75.5212 13.2275 75.708 13.2275C76.0726 13.2275 76.4417 13.1113 76.8154 12.8789C76.4873 13.1113 76.1979 13.321 75.9473 13.5078C75.7012 13.6901 75.4688 13.8428 75.25 13.9658C75.0358 14.0889 74.8216 14.18 74.6074 14.2393C74.3932 14.2985 74.154 14.3167 73.8896 14.2939C73.6208 14.2757 73.3587 14.1868 73.1035 14.0273C72.8529 13.8724 72.6113 13.6878 72.3789 13.4736C72.1465 13.2594 71.9232 13.0316 71.709 12.79C71.4948 12.5485 71.292 12.332 71.1006 12.1406C71.0186 12.0449 70.9274 11.9561 70.8271 11.874C70.7406 11.8057 70.6357 11.7373 70.5127 11.6689C70.3942 11.6006 70.2598 11.5527 70.1094 11.5254C70.2689 11.3932 70.4284 11.277 70.5879 11.1768C70.752 11.0719 70.9001 10.9808 71.0322 10.9033C71.1872 10.8167 71.3398 10.7393 71.4902 10.6709C71.6452 10.6025 71.807 10.5228 71.9756 10.4316C72.1488 10.3405 72.306 10.2357 72.4473 10.1172C72.5931 9.99414 72.7116 9.85514 72.8027 9.7002C72.8984 9.54069 72.9463 9.3584 72.9463 9.15332C72.9463 8.9847 72.9167 8.82064 72.8574 8.66113C72.8027 8.49707 72.723 8.35352 72.6182 8.23047C72.5133 8.10286 72.388 8.0026 72.2422 7.92969C72.1009 7.85221 71.9437 7.81348 71.7705 7.81348C71.5973 7.81348 71.431 7.84082 71.2715 7.89551C71.112 7.9502 70.9798 8.00716 70.875 8.06641C70.7839 8.11654 70.6654 8.26009 70.5195 8.49707C70.3783 8.73405 70.237 9.06673 70.0957 9.49512C69.9544 9.9235 69.8291 10.4499 69.7197 11.0742C69.6149 11.6986 69.5534 12.4209 69.5352 13.2412ZM76.8154 12.8789L76.8838 12.8242L76.8154 12.8789ZM85.5107 7.47852C84.9867 7.73372 84.499 7.96159 84.0479 8.16211C83.6012 8.35807 83.207 8.52441 82.8652 8.66113C82.4688 8.82064 82.1042 8.96191 81.7715 9.08496C81.5664 9.17155 81.3385 9.26042 81.0879 9.35156C80.8418 9.43815 80.5843 9.52474 80.3154 9.61133C80.0465 9.69336 79.7708 9.77767 79.4883 9.86426C79.2103 9.94629 78.9346 10.0283 78.6611 10.1104V10.2471C78.6611 10.7165 78.734 11.138 78.8799 11.5117C79.0303 11.8854 79.2376 12.2044 79.502 12.4688C79.7663 12.7285 80.083 12.929 80.4521 13.0703C80.8213 13.207 81.2292 13.2754 81.6758 13.2754C81.9082 13.2754 82.1383 13.2572 82.3662 13.2207C82.5986 13.1842 82.8174 13.1364 83.0225 13.0771C83.2321 13.0133 83.4281 12.9382 83.6104 12.8516C83.7926 12.765 83.9544 12.6715 84.0957 12.5713C83.7493 12.8812 83.3916 13.141 83.0225 13.3506C82.6579 13.5602 82.291 13.7311 81.9219 13.8633C81.5573 13.9909 81.195 14.0843 80.835 14.1436C80.4795 14.2028 80.1377 14.2347 79.8096 14.2393C79.4769 14.2484 79.1488 14.196 78.8252 14.082C78.5062 13.9727 78.2145 13.804 77.9502 13.5762C77.6859 13.3483 77.4626 13.0658 77.2803 12.7285C77.098 12.3867 76.9795 11.9902 76.9248 11.5391C76.902 11.3796 76.8906 11.2269 76.8906 11.0811C76.8952 10.9307 76.9111 10.7826 76.9385 10.6367C76.779 10.696 76.6331 10.7507 76.501 10.8008C76.3734 10.8509 76.2686 10.901 76.1865 10.9512C76.3187 10.86 76.4508 10.7757 76.583 10.6982C76.7152 10.6162 76.8451 10.541 76.9727 10.4727C77.0501 10.1172 77.1823 9.77767 77.3691 9.4541C77.5605 9.13053 77.7884 8.82975 78.0527 8.55176C78.3216 8.27376 78.6201 8.02311 78.9482 7.7998C79.2764 7.57194 79.6159 7.37826 79.9668 7.21875C80.3223 7.05924 80.6823 6.9362 81.0469 6.84961C81.4115 6.76302 81.7646 6.71973 82.1064 6.71973C82.3343 6.71973 82.5257 6.75391 82.6807 6.82227C82.8402 6.89062 82.9473 7.01139 83.002 7.18457C83.0293 7.36686 82.9632 7.56283 82.8037 7.77246C82.7354 7.86361 82.6419 7.96159 82.5234 8.06641C82.4095 8.16667 82.2591 8.27376 82.0723 8.3877C81.89 8.50163 81.6689 8.62012 81.4092 8.74316C81.154 8.86621 80.8509 8.98926 80.5 9.1123L85.5107 7.47852ZM80.0898 9.13965C80.2858 9.05306 80.4613 8.95964 80.6162 8.85938C80.7757 8.75911 80.8988 8.6543 80.9854 8.54492C81.0765 8.43555 81.1243 8.32161 81.1289 8.20312C81.1335 8.08464 81.0856 7.95931 80.9854 7.82715C80.917 7.72689 80.8213 7.65853 80.6982 7.62207C80.5798 7.58105 80.4567 7.56055 80.3291 7.56055C80.2106 7.56055 80.0967 7.57422 79.9873 7.60156C79.8779 7.62435 79.7822 7.65625 79.7002 7.69727C79.6455 7.72917 79.5703 7.7998 79.4746 7.90918C79.3789 8.014 79.2809 8.15299 79.1807 8.32617C79.0804 8.49479 78.9847 8.69303 78.8936 8.9209C78.807 9.14421 78.7432 9.3903 78.7021 9.65918C78.9893 9.55436 79.249 9.46094 79.4814 9.37891C79.7139 9.29688 79.9167 9.21712 80.0898 9.13965Z" fill="white"/>
</svg>
